<?xml version="1.0" encoding="iso-8859-1"?>
<!-- Generator: Adobe Illustrator 17.1.0, SVG Export Plug-In . SVG Version: 6.00 Build 0)  -->
<!DOCTYPE svg PUBLIC "-//W3C//DTD SVG 1.1//EN" "http://www.w3.org/Graphics/SVG/1.1/DTD/svg11.dtd">
<svg version="1.1" id="Capa_1" xmlns="http://www.w3.org/2000/svg" xmlns:xlink="http://www.w3.org/1999/xlink" x="0px" y="0px"
	 viewBox="0 0 479.11 479.11" style="enable-background:new 0 0 479.11 479.11;" xml:space="preserve">
<g>
	<path d="M466.934,449.81H424.32c-2.834,0-3.022-1.531-3.022-2.311V268.363v-22.354l9.457,21.87
		c3.7,8.557,12.114,14.085,21.438,14.085c3.191,0,6.306-0.647,9.257-1.924c5.724-2.474,10.141-7.029,12.439-12.827
		c2.297-5.798,2.198-12.143-0.276-17.868L428.609,145.28c-3.698-8.557-12.449-14.087-21.775-14.087
		c-0.336,0-86.733,0.215-87.486,0.215c-8.57,0-15.064,6.273-18.349,13.872l-45.001,104.065c-2.476,5.725-2.574,12.07-0.277,17.868
		c2.297,5.797,6.714,10.353,12.437,12.827c2.954,1.276,6.069,1.924,9.259,1.924c9.323,0,17.737-5.528,21.436-14.085l8.693-20.104
		v20.587V447.5c0,0.779,0.481,2.311-2.269,2.311h-78.659V203.492h21.412c6.485,0,8.987-3.076,9.901-4.909
		c0.914-1.834,1.865-5.684-2.039-10.862l-53.374-70.818c-2.698-3.581-6.536-5.635-10.53-5.635c-3.993,0-7.832,2.054-10.53,5.635
		l-53.373,70.816c-3.904,5.181-2.954,9.03-2.04,10.863c0.914,1.834,3.416,4.91,9.902,4.91h21.411V449.81h-47.979V297.538h21.413
		c6.485,0,8.987-3.076,9.901-4.909c0.914-1.834,1.865-5.684-2.039-10.863l-53.374-70.818c-2.698-3.581-6.536-5.634-10.53-5.634
		c-3.994,0-7.832,2.054-10.53,5.635l-53.373,70.817c-3.904,5.18-2.953,9.029-2.039,10.863c0.914,1.833,3.416,4.909,9.901,4.909
		h21.411V449.81H12.177C5.451,449.81,0,455.261,0,461.987c0,6.725,5.451,12.177,12.177,12.177h454.757
		c6.726,0,12.177-5.451,12.177-12.177C479.11,455.261,473.659,449.81,466.934,449.81z M358.971,447.5V311.268h10.904V447.5
		c0,0.779,0.278,2.311-1.534,2.311h-7.313C358.903,449.81,358.971,448.279,358.971,447.5z"/>
	<path d="M362.127,122.636c32.44,0,58.831-26.398,58.831-58.845c0-32.447-26.392-58.845-58.831-58.845
		c-32.447,0-58.845,26.397-58.845,58.845C303.282,96.239,329.68,122.636,362.127,122.636z"/>
</g>
<g>
</g>
<g>
</g>
<g>
</g>
<g>
</g>
<g>
</g>
<g>
</g>
<g>
</g>
<g>
</g>
<g>
</g>
<g>
</g>
<g>
</g>
<g>
</g>
<g>
</g>
<g>
</g>
<g>
</g>
</svg>
